<svg xmlns="http://www.w3.org/2000/svg" style="display: none;"><symbol id="embarrassed" viewBox="0 0 511.999 511.999"><title>embarrassed</title><path d="M203.03,88.708c-4.143,0-7.5,3.357-7.5,7.5v1.298c0,4.143,3.357,7.5,7.5,7.5c4.143,0,7.5-3.357,7.5-7.5v-1.298 C210.53,92.065,207.172,88.708,203.03,88.708z"/><path d="M431.093,104.855h-29.126c-20.222,0-38.955-10.07-50.109-26.937c-20.478-30.968-54.867-49.455-91.993-49.455h-42.413 c-19.792,0-39.115,5.001-56.307,14.49c-0.604-0.673-1.226-1.335-1.872-1.982l-24.054-24.054c-6.17-6.169-16.208-6.169-22.38,0 L88.785,40.969c-19.433,19.434-19.433,51.054,0,70.488c4.294,4.294,9.185,7.635,14.405,10.031 c-1.6,7.762-2.419,15.689-2.419,23.655v50.198c0,33.034,15.486,63.047,39.901,82.539c-10.249,16.232-15.827,34.552-16.271,53.518 c-25.006,17.622-62.926,24.986-102.369,19.723c-9.24-1.23-17.606,3.813-20.805,12.56c-3.167,8.663-0.063,17.823,7.725,22.794 c48.757,31.129,109.241,37.766,156.896,39.932c1.199,0.58,2.424,1.142,3.682,1.682c0.543,14.833,0.604,30.805,0.109,37.261 c-1.349,17.544,11.827,32.915,29.372,34.265c0.814,0.063,1.646,0.095,2.472,0.095c16.555,0,30.52-12.943,31.792-29.469 c0.152-1.995,0.531-15.155,0.351-30.788c3.148,0.082,6.372,0.126,9.679,0.126c9.155,0,17.687-0.319,25.642-0.956 c5.105,15.015,5.507,19.924,5.531,20.29c0.009,8.475,3.303,16.448,9.282,22.462c6.01,6.044,14.015,9.386,22.63,9.41 c11.404,0,22.016-6.15,27.694-16.051c2.061-3.593,0.818-8.177-2.774-10.237c-3.594-2.061-8.177-0.819-10.237,2.775 c-3.013,5.252-8.639,8.515-14.731,8.515c-4.519-0.013-8.761-1.784-11.945-4.987c-3.186-3.202-4.932-7.454-4.919-11.972 c0-0.049,0-0.098-0.001-0.147c-0.033-1.957-0.669-7.682-5.292-21.78c12.608-1.886,23.468-4.782,32.721-8.738 c1.54,4.809,2.809,9.194,3.778,13.084c0.85,3.41,3.908,5.689,7.272,5.689c0.601,0,1.21-0.073,1.819-0.225 c4.019-1.001,6.466-5.071,5.464-9.091c-1.224-4.914-2.872-10.507-4.906-16.671c5.1-3.422,9.52-7.327,13.29-11.739 c4.291-5.021,7.6-10.541,10.151-16.419c3.864,2.72,8.518,4.237,13.446,4.237c4.315,0,8.545-1.199,12.228-3.466 c5.316-3.27,9.041-8.416,10.488-14.487s0.442-12.345-2.829-17.658c-6.076-9.877-14.43-18.87-24.853-26.785 c0-0.259,0.001-0.517,0.001-0.776c0-11.323-1.808-22.386-5.383-33.023h74.224c44.611,0,80.906-36.295,80.906-80.906v-34.164 C511.999,141.149,475.705,104.855,431.093,104.855z M361.777,353.901c5.009,4.809,9.214,9.949,12.553,15.375 c1.171,1.903,1.531,4.148,1.013,6.322c-0.518,2.174-1.852,4.017-3.758,5.189c-1.319,0.811-2.829,1.241-4.367,1.241 c-2.938,0-5.607-1.489-7.142-3.984c-0.359-0.584-0.74-1.167-1.132-1.75C360.495,369.06,361.333,361.528,361.777,353.901z M113.93,109.573c-0.021-0.006-0.043-0.008-0.064-0.014c-5.409-1.641-10.365-4.598-14.474-8.707 c-13.586-13.586-13.586-35.691,0-49.275l24.053-24.054c0.161-0.161,0.373-0.241,0.584-0.241c0.212,0,0.423,0.08,0.584,0.241 l24.054,24.054c13.586,13.584,13.586,35.689,0,49.274c-6.581,6.581-15.33,10.206-24.638,10.206c-3.436,0-6.795-0.498-9.999-1.452 C113.996,109.596,113.965,109.582,113.93,109.573z M17.022,373.835c-2.589-1.652-2.058-4.05-1.709-5.003 c0.365-0.996,1.557-3.26,4.733-2.843c38.96,5.201,76.892-1.116,104.547-16.964c0.839,22.118,4.395,43.81,18.391,60.187 c0.235,0.275,0.483,0.54,0.723,0.812C102.504,406.741,55.465,398.38,17.022,373.835z M218.316,469.096 c-0.674,8.757-8.069,15.616-16.836,15.616c-0.444,0-0.889-0.017-1.322-0.05c-9.298-0.716-16.28-8.862-15.566-18.159 c0.518-6.734,0.465-20.504,0.109-33.222c9.884,2.648,21.153,4.441,33.914,5.416C218.821,454.663,218.417,467.763,218.316,469.096 z M431.093,285.832H227.618c-4.143,0-7.5,3.357-7.5,7.5c0,4.143,3.357,7.5,7.5,7.5h113.274 c4.223,10.549,6.361,21.635,6.361,33.023c0,29.646-2.516,50.962-15.035,65.612c-3.762,4.402-8.43,8.196-14.058,11.409 c-0.325,0.15-0.63,0.325-0.924,0.515c-10.819,5.945-25.098,9.815-43.314,11.74c-0.367,0.008-0.735,0.047-1.104,0.111 c-8.899,0.895-18.71,1.341-29.514,1.341c-5.77,0-11.26-0.126-16.479-0.379c-0.274-0.03-0.552-0.05-0.834-0.05 c-0.019,0-0.038,0-0.057,0.001c-18.592-0.96-33.709-3.565-45.728-7.917c-0.5-0.254-1.03-0.453-1.584-0.589 c-2.429-0.932-4.726-1.939-6.895-3.022c-0.346-0.216-0.712-0.4-1.092-0.558c-6.621-3.454-12.009-7.643-16.248-12.603 c-12.521-14.649-15.035-35.967-15.035-65.612c0-16.782,4.713-33.057,13.682-47.468c11.714,6.889,24.897,11.594,39.028,13.495 c0.34,0.046,0.677,0.068,1.011,0.068c3.697,0,6.916-2.735,7.423-6.5c0.553-4.105-2.327-7.881-6.432-8.434 c-44.633-6.01-78.291-44.561-78.291-89.676v-50.198c0-6.574,0.636-13.116,1.885-19.53c2.116,0.271,4.245,0.419,6.375,0.419 c12.764,0,25.526-4.858,35.244-14.574v-0.001c15.096-15.096,18.458-37.546,10.1-55.924c14.727-7.915,31.208-12.072,48.079-12.072 h42.413c32.076,0,61.789,15.973,79.481,42.728c13.94,21.079,37.35,33.664,62.621,33.664h29.126 c36.342,0,65.907,29.566,65.907,65.908v34.167H497C497,256.267,467.435,285.832,431.093,285.832z"/><path d="M216.841,357.835c-2.577,3.242-2.037,7.961,1.206,10.538c5.603,4.452,17.61,9.652,33.013,9.652 c10.631,0,20.598-2.508,29.624-7.455c11.299-6.191,15.452-20.421,9.262-31.723c-3.001-5.474-7.953-9.451-13.943-11.2 c-5.99-1.75-12.306-1.061-17.777,1.94c-6.195,3.392-13.399,0.673-13.467,0.645c-3.829-1.591-8.215,0.226-9.802,4.052 c-1.588,3.826,0.227,8.215,4.052,9.802c5.066,2.104,16.332,4.188,26.426-1.345c1.959-1.072,4.222-1.319,6.365-0.694 c2.146,0.627,3.92,2.052,4.994,4.011c2.217,4.047,0.729,9.143-3.316,11.36c-6.792,3.722-14.332,5.609-22.415,5.609 c-11.47,0-20.445-3.825-23.681-6.396C224.136,354.054,219.42,354.592,216.841,357.835z"/><circle cx="440.509" cy="150.698" r="7.514"/><path d="M423.642,228.006h-14.152c-4.143,0-7.5,3.357-7.5,7.5c0,4.143,3.357,7.5,7.5,7.5h14.153c4.143,0,7.5-3.357,7.5-7.5 C431.141,231.363,427.785,228.006,423.642,228.006z"/><path d="M282.125,88.708c-4.143,0-7.5,3.357-7.5,7.5v1.298c0,4.143,3.357,7.5,7.5,7.5c4.143,0,7.5-3.357,7.5-7.5v-1.298 C289.625,92.065,286.267,88.708,282.125,88.708z"/><circle cx="392.622" cy="150.698" r="7.514"/></symbol><symbol id="debt" viewBox="0 0 511.527 511.527"><title>debt</title><path d="m55.399 337.485c29.531 31.129 72.199 50.433 114.546 55.01v80.321c0 15.149 12.325 27.474 27.474 27.474h225.093c9.386 0 9.813-15 0-15h-225.093c-6.878 0-12.474-5.596-12.474-12.474v-114.847c0-6.878 5.596-12.474 12.474-12.474h286.634c6.878 0 12.474 5.596 12.474 12.474v114.847c0 6.878-5.596 12.474-12.474 12.474h-21.615c-9.386 0-9.813 15 0 15h21.615c15.149 0 27.474-12.325 27.474-27.474v-114.847c0-15.149-12.324-27.474-27.474-27.474h-14.236c.001-29.54-.001-70.538 0-100.141 0-4.142-3.357-7.5-7.5-7.5h-73.554c.002-15.642-.001-48.46 0-64.26 0-4.142-3.357-7.5-7.5-7.5h-6.344c-21.595-80.851-100.144-141.202-184.202-139.834-23.273-.001-46.017 4.136-67.598 12.294-8.779 3.319-3.876 17.5 5.304 14.031 17.557-6.637 35.955-10.38 54.794-11.165v157.916l-111.675-111.672c7.042-6.457 14.653-12.404 22.81-17.744 7.853-5.14-.004-17.925-8.215-12.551-100.76 63.447-115.874 212.261-30.738 295.116zm399.418-42.87h-66.054v-20.88h66.054zm-147.108-56.761h66.054v20.88h-66.054zm0 35.881h66.054v20.88h-66.054zm66.054-50.881h-66.054v-20.88h66.054zm0-56.76v20.88h-66.054v-20.88zm-81.054 128.521h-66.054v-20.88h66.054zm-66.054 15h66.054v20.88h-66.054zm81.054 0h66.054v20.88h-66.054zm81.054 20.88v-20.88h66.054v20.88zm66.054-71.76h-66.054v-20.88h66.054zm-95.521-107.641h-59.087c-4.143 0-7.5 3.358-7.5 7.5.004 29.621-.003 70.583 0 100.141h-73.554c-4.142 0-7.5 3.358-7.5 7.5.017 15.841-.012 48.575 0 64.26h-14.236c-15.149 0-27.474 12.325-27.474 27.474v19.442c-36.82-4.323-71.105-20.105-98.395-45.201l124.47-124.465c1.388-1.388 2.197-3.343 2.197-5.306v-176.027c73.1 1.923 140.546 54.725 161.079 124.682zm-298.379-67.841 119.194 119.189-119.162 119.157c-61.605-64.21-61.192-174.602-.032-238.346z"/><path d="m328.372 385.953c9.931-.344 9.923-14.66 0-15h-31.275c-4.143 0-7.5 3.358-7.5 7.5v74.222c0 4.142 3.357 7.5 7.5 7.5h31.275c9.931-.344 9.923-14.66 0-15h-23.775v-22.111h21.47c9.931-.344 9.923-14.66 0-15h-21.47v-22.111z"/><path d="m210.457 451.494c0 4.418 2.701 8.681 7.676 8.681.622-.002 15.291-.059 21.146-.161 48.202-.893 48.243-88.273-.733-87.528h-20.588c-4.212 0-7.5 3.405-7.5 7.575v71.433zm28.089-64.009c29.633-.527 28.836 57.192.471 57.53-3.063.054-8.867.095-13.546.122-.062-19.217.034-38.435 0-57.652z"/><path d="m379.983 370.269h-21.759c-4.143 0-7.5 3.358-7.5 7.5-.004 18.466.003 56.32 0 74.905 0 3.734 3.733 7.5 7.533 7.5h25.525c27.001-.214 37.734-34.867 15.968-50.318 12.227-15.973.508-39.693-19.767-39.587zm0 15c12.918.536 12.911 18.939 0 19.472-4.753 0-9.506.026-14.259.02v-19.492zm3.8 59.816c-3.298 0-11.762.032-18.059.057v-25.357c6.02-.024 12.039-.024 18.059-.024 16.799.695 16.794 24.632 0 25.324z"/><path d="m442.747 460.516c4.143 0 7.5-3.358 7.5-7.5v-67.405h13.268c9.931-.344 9.923-14.66 0-15h-41.368c-9.931.344-9.923 14.66 0 15h13.101v67.405c-.001 4.142 3.356 7.5 7.499 7.5z"/></symbol><symbol id="diagram" viewBox="0 0 512.004 512.004"><title>diagram</title><path d="m497 512.004h-482c-8.284 0-15-6.716-15-15s6.716-15 15-15h482c8.284 0 15 6.716 15 15s-6.716 15-15 15z"/><path d="m106 512.004h-60c-8.284 0-15-6.716-15-15v-110c0-13.785 11.215-25 25-25h40c13.785 0 25 11.215 25 25v110c0 8.284-6.716 15-15 15zm-45-30h30v-90h-30zm35-90h.01z"/><path d="m226 512.004h-60c-8.284 0-15-6.716-15-15v-146c0-13.785 11.215-25 25-25h40c13.785 0 25 11.215 25 25v146c0 8.284-6.716 15-15 15zm-45-30h30v-126h-30zm35-126h.01z"/><path d="m346 512.004h-60c-8.284 0-15-6.716-15-15v-201c0-13.785 11.215-25 25-25h40c13.785 0 25 11.215 25 25v201c0 8.284-6.716 15-15 15zm-45-30h30v-181h-30zm35-181h.01z"/><path d="m466 512.004h-60c-8.284 0-15-6.716-15-15v-301c0-13.785 11.215-25 25-25h40c13.785 0 25 11.215 25 25v301c0 8.284-6.716 15-15 15zm-45-30h30v-281h-30zm35-281h.01z"/><path d="m15 322.308c-8.284 0-15-6.716-15-15s6.716-15 15-15c88.206 0 184.244-32.12 270.421-90.443 79.281-53.655 142.455-123.995 173.323-192.984 3.384-7.562 12.257-10.95 19.818-7.565 7.562 3.383 10.949 12.256 7.565 19.818-33.086 73.947-100.112 148.877-183.891 205.576-91.089 61.647-193.099 95.598-287.236 95.598z"/><path d="m496.991 121.678c-6.624 0-12.684-4.42-14.479-11.122l-20.681-77.181-77.181 20.681c-8.005 2.146-16.227-2.604-18.371-10.606s2.604-16.227 10.606-18.371l91.67-24.563c8.005-2.145 16.227 2.605 18.371 10.606l24.563 91.67c2.144 8.002-2.604 16.227-10.606 18.371-1.301.348-2.607.515-3.892.515z"/></symbol><symbol id="question" viewBox="0 0 426.667 426.667"><title>question</title><g> <g> <rect x="192" y="298.667" width="42.667" height="42.667"/> </g> </g><g> <g> <path d="M213.333,0C95.513,0,0,95.513,0,213.333s95.513,213.333,213.333,213.333s213.333-95.513,213.333-213.333 S331.154,0,213.333,0z M213.333,388.053c-96.495,0-174.72-78.225-174.72-174.72s78.225-174.72,174.72-174.72 c96.446,0.117,174.602,78.273,174.72,174.72C388.053,309.829,309.829,388.053,213.333,388.053z"/> </g> </g><g> <g> <path d="M296.32,150.4c-10.974-45.833-57.025-74.091-102.858-63.117c-38.533,9.226-65.646,43.762-65.462,83.384h42.667 c2.003-23.564,22.729-41.043,46.293-39.04s41.043,22.729,39.04,46.293c-4.358,21.204-23.38,36.169-45.013,35.413 c-10.486,0-18.987,8.501-18.987,18.987v0v45.013h42.667v-24.32C279.787,241.378,307.232,195.701,296.32,150.4z"/> </g> </g></symbol><symbol id="toiletries" viewBox="0 0 512 512"><title>toiletries</title><path d="m440.6 275.514h-8.763v-28.149c0-4.142-3.358-7.5-7.5-7.5s-7.5 3.358-7.5 7.5v28.149h-17.615v-106.143c0-1.349-.364-2.673-1.054-3.833l-21.37-35.939v-111.907c0-1.484 1.208-2.692 2.692-2.692h12.231c1.484 0 2.692 1.208 2.692 2.692v102.109c0 1.349.364 2.673 1.053 3.833l21.37 35.94v52.394c0 4.142 3.358 7.5 7.5 7.5s7.5-3.358 7.5-7.5v-54.456c0-1.349-.364-2.673-1.053-3.833l-18.137-30.503h20.863c9.755 0 17.692-7.937 17.692-17.692v-77.244c0-9.755-7.937-17.692-17.692-17.692h-25.616c-2.751-6.204-8.959-10.548-16.171-10.548h-12.231c-9.755 0-17.692 7.937-17.692 17.692v113.968c0 1.349.364 2.673 1.054 3.833l21.37 35.94v104.081h-4.369l-43.515-112.811c-1.355-3.514-4.017-6.143-7.233-7.534l-7.334-26.689c-2.585-9.407-12.34-14.958-21.748-12.372l-29.091 7.994c-4.557 1.252-8.354 4.204-10.69 8.311-2.337 4.108-2.935 8.88-1.682 13.437l7.334 26.69c-2.053 2.839-2.998 6.458-2.368 10.171l15.758 92.803h-3.119c-7.508 0-13.616 6.108-13.616 13.615v87.248c-.706-.005-1.408-.021-2.115-.021-6.549 0-13.011.239-19.351.68v-138.269c0-15.164-12.336-27.5-27.5-27.5h-14.627v-13.6c0-9.649-7.851-17.5-17.5-17.5h-11.261v-32.667h9.423c9.649 0 17.5-7.851 17.5-17.5v-13.32c0-9.649-7.851-17.5-17.5-17.5h-60.37c-9.365 0-17.014 7.401-17.457 16.659h-23.34c-1.989 0-3.897.79-5.303 2.197l-13.167 13.167c-2.929 2.929-2.929 7.678 0 10.606 1.464 1.464 3.384 2.197 5.303 2.197s3.839-.732 5.303-2.197l10.97-10.97h20.233c.442 9.259 8.091 16.661 17.458 16.661h9.424v32.667h-11.262c-9.649 0-17.5 7.851-17.5 17.5v13.6h-14.627c-15.164 0-27.5 12.336-27.5 27.5v148.536c0 4.142 3.358 7.5 7.5 7.5s7.5-3.358 7.5-7.5v-20.803h89.124c9.649 0 17.5-7.851 17.5-17.5v-66c0-9.649-7.851-17.5-17.5-17.5h-89.124v-26.733c0-6.893 5.607-12.5 12.5-12.5h128.299c6.893 0 12.5 5.607 12.5 12.5v139.741c-17.553 2.255-33.685 6.237-47.144 11.75-24.012 9.834-37.236 23.738-37.236 39.152 0 9.495 4.98 18.38 14.388 26.104h-22.876c-7.507 0-13.615 6.108-13.615 13.615v10.225c0 6.498 1.916 12.554 5.202 17.646h-39.518c-6.893 0-12.5-5.607-12.5-12.5v-61.802c0-4.142-3.358-7.5-7.5-7.5s-7.5 3.358-7.5 7.5v61.802c0 15.164 12.336 27.5 27.5 27.5h336.285c18.001 0 32.646-14.645 32.646-32.646v-190.225c.001-7.507-6.107-13.615-13.615-13.615zm-4.397-247.274v77.245c0 1.484-1.208 2.692-2.692 2.692h-24.096v-82.63h24.096c1.484.001 2.692 1.209 2.692 2.693zm-274.295 252.26c1.378 0 2.5 1.122 2.5 2.5v66c0 1.378-1.122 2.5-2.5 2.5h-89.124v-71zm-45.16-150.5v-13.32c0-1.378 1.122-2.5 2.5-2.5h60.37c1.378 0 2.5 1.122 2.5 2.5v13.32c0 1.378-1.122 2.5-2.5 2.5h-60.37c-1.378 0-2.5-1.122-2.5-2.5zm26.924 17.5h11.522v32.667h-11.522zm-28.761 50.167c0-1.378 1.122-2.5 2.5-2.5h64.045c1.378 0 2.5 1.122 2.5 2.5v13.6h-69.045zm158.369-57.836c.206-.362.691-1.007 1.627-1.265l29.091-7.994c.937-.257 1.682.049 2.045.256.362.206 1.007.691 1.265 1.627l6.546 23.823-34.284 9.42-6.546-23.823c-.257-.935.05-1.682.256-2.044zm5.261 41.707 44.291-12.17 40.944 106.146h-69.278zm-126.294 315.462c-9.73 0-17.646-7.916-17.646-17.646v-8.84h136.703c4.142 0 7.5-3.358 7.5-7.5s-3.358-7.5-7.5-7.5h-84.6c-.027-.011-.052-.025-.079-.035-18.736-7.276-29.922-17.022-29.922-26.069 0-8.664 10.438-18.111 27.921-25.271 20.127-8.243 47.051-12.783 75.81-12.783s55.682 4.54 75.809 12.783c17.483 7.16 27.921 16.607 27.921 25.271 0 9.037-11.165 18.774-29.866 26.047-.044.017-.084.039-.127.057h-27.472c-4.142 0-7.5 3.358-7.5 7.5s3.358 7.5 7.5 7.5h79.568v8.84c0 9.73-7.916 17.646-17.646 17.646zm286.969-17.646c0 9.73-7.916 17.646-17.646 17.646h-25.505c3.286-5.093 5.202-11.148 5.202-17.646v-10.225c0-7.507-6.108-13.615-13.615-13.615h-22.877c9.409-7.725 14.39-16.611 14.39-26.104 0-15.414-13.224-29.318-37.236-39.152-17.765-7.275-40.175-11.897-64.379-13.381v-86.362h161.667v188.839z"/></symbol><symbol id="check-mark" viewBox="0 0 512 512"><title>check-mark</title><path d="m369.164062 174.769531c7.8125 7.8125 7.8125 20.476563 0 28.285157l-134.171874 134.175781c-7.8125 7.808593-20.472657 7.808593-28.285157 0l-63.871093-63.875c-7.8125-7.808594-7.8125-20.472657 0-28.28125 7.808593-7.8125 20.472656-7.8125 28.28125 0l49.730468 49.730469 120.03125-120.035157c7.8125-7.808593 20.476563-7.808593 28.285156 0zm142.835938 81.230469c0 141.503906-114.515625 256-256 256-141.503906 0-256-114.515625-256-256 0-141.503906 114.515625-256 256-256 141.503906 0 256 114.515625 256 256zm-40 0c0-119.394531-96.621094-216-216-216-119.394531 0-216 96.621094-216 216 0 119.394531 96.621094 216 216 216 119.394531 0 216-96.621094 216-216zm0 0"/></symbol><symbol id="checked" viewBox="0 0 408.576 408.576"><title>checked</title><path d="M204.288,0C91.648,0,0,91.648,0,204.288s91.648,204.288,204.288,204.288s204.288-91.648,204.288-204.288 S316.928,0,204.288,0z M318.464,150.528l-130.56,129.536c-7.68,7.68-19.968,8.192-28.16,0.512L90.624,217.6 c-8.192-7.68-8.704-20.48-1.536-28.672c7.68-8.192,20.48-8.704,28.672-1.024l54.784,50.176L289.28,121.344 c8.192-8.192,20.992-8.192,29.184,0C326.656,129.536,326.656,142.336,318.464,150.528z"/></symbol><symbol id="list" viewBox="0 0 512.899 512.899"><title>list</title><path d="m42.362 143.467c4.142 0 7.5-3.358 7.5-7.5v-120.967h262.06v66.773c0 8.458 6.881 15.339 15.339 15.339h67.26v37.349c0 4.142 3.358 7.5 7.5 7.5s7.5-3.358 7.5-7.5v-42.049c0-3.652-1.422-7.085-4.004-9.667l-78.739-78.74c-2.582-2.583-6.015-4.005-9.668-4.005h-268.577c-7.538 0-13.671 6.133-13.671 13.671v122.296c0 4.142 3.358 7.5 7.5 7.5zm284.56-61.694v-56.41l56.749 56.749h-56.41c-.186 0-.339-.152-.339-.339z"/><path d="m402.022 346.071c-4.142 0-7.5 3.358-7.5 7.5v144.328h-344.66v-329.942c0-4.142-3.358-7.5-7.5-7.5s-7.5 3.358-7.5 7.5v331.271c0 7.538 6.133 13.671 13.671 13.671h347.317c7.538 0 13.671-6.133 13.671-13.671v-145.657c.001-4.142-3.357-7.5-7.499-7.5z"/><path d="m140.177 90.755c0-8.056-6.554-14.61-14.611-14.61h-40.158c-8.056 0-14.61 6.554-14.61 14.61v40.158c0 8.057 6.554 14.611 14.61 14.611h40.158c8.057 0 14.611-6.554 14.611-14.611zm-15 39.769h-39.379v-39.379h39.379z"/><path d="m158.785 101.521h119.952c4.142 0 7.5-3.358 7.5-7.5s-3.358-7.5-7.5-7.5h-119.952c-4.142 0-7.5 3.358-7.5 7.5s3.358 7.5 7.5 7.5z"/><path d="m158.785 135.148h119.952c4.142 0 7.5-3.358 7.5-7.5s-3.358-7.5-7.5-7.5h-119.952c-4.142 0-7.5 3.358-7.5 7.5s3.358 7.5 7.5 7.5z"/><path d="m140.177 181.146c0-8.057-6.554-14.611-14.611-14.611h-40.158c-8.056 0-14.61 6.554-14.61 14.611v40.158c0 8.057 6.554 14.611 14.61 14.611h40.158c8.057 0 14.611-6.554 14.611-14.611zm-15 39.768h-39.379v-39.379h39.379z"/><path d="m319.422 176.91h-160.637c-4.142 0-7.5 3.358-7.5 7.5s3.358 7.5 7.5 7.5h160.637c4.142 0 7.5-3.358 7.5-7.5s-3.357-7.5-7.5-7.5z"/><path d="m326.922 218.039c0-4.142-3.358-7.5-7.5-7.5h-160.637c-4.142 0-7.5 3.358-7.5 7.5s3.358 7.5 7.5 7.5h160.637c4.143 0 7.5-3.358 7.5-7.5z"/><path d="m140.177 271.535c0-8.057-6.554-14.611-14.611-14.611h-40.158c-8.056 0-14.61 6.554-14.61 14.611v40.158c0 8.057 6.554 14.611 14.61 14.611h40.158c8.057 0 14.611-6.554 14.611-14.611zm-15 39.769h-39.379v-39.379h39.379z"/><path d="m158.785 282.3h143.299c4.142 0 7.5-3.358 7.5-7.5s-3.358-7.5-7.5-7.5h-143.299c-4.142 0-7.5 3.358-7.5 7.5s3.358 7.5 7.5 7.5z"/><path d="m319.879 308.428c0-4.142-3.358-7.5-7.5-7.5h-153.594c-4.142 0-7.5 3.358-7.5 7.5s3.358 7.5 7.5 7.5h153.594c4.142 0 7.5-3.358 7.5-7.5z"/><path d="m125.566 347.314h-40.158c-8.056 0-14.61 6.554-14.61 14.611v40.158c0 8.057 6.554 14.611 14.61 14.611h40.158c8.057 0 14.611-6.554 14.611-14.611v-40.158c0-8.057-6.554-14.611-14.611-14.611zm-.389 54.379h-39.379v-39.379h39.379z"/><path d="m292.462 365.189c0-4.142-3.358-7.5-7.5-7.5h-126.177c-4.142 0-7.5 3.358-7.5 7.5s3.358 7.5 7.5 7.5h126.177c4.142 0 7.5-3.357 7.5-7.5z"/><path d="m158.785 391.318c-4.142 0-7.5 3.358-7.5 7.5s3.358 7.5 7.5 7.5h103.146c4.142 0 7.5-3.358 7.5-7.5s-3.358-7.5-7.5-7.5z"/><path d="m466.79 125.486-10.31-5.076c-9.967-4.908-22.07-.792-26.978 9.176l-148.501 301.591c-.777 1.577-1.146 3.339-1.067 5.098l1.447 31.995c.172 3.813 2.406 7.229 5.83 8.915 1.464.721 3.046 1.077 4.622 1.077 2.11 0 4.209-.638 6-1.89l26.244-18.362c1.441-1.009 2.612-2.376 3.387-3.95l41.236-83.746c1.83-3.716.301-8.212-3.416-10.042-3.714-1.83-8.211-.301-10.042 3.416l-23.567 47.861-19.549-9.626 101.86-206.867 19.55 9.626-64.144 130.269c-1.83 3.716-.301 8.212 3.416 10.042 3.717 1.831 8.212.301 10.042-3.416l93.117-189.11c4.907-9.97.79-22.072-9.177-26.981zm-170.798 333.865-.861-19.03 16.469 8.109zm29.057-34.347-5.282 10.727-19.549-9.626 5.282-10.727zm95.563-243.407 5.282-10.727 19.55 9.626-5.282 10.727zm41.897-35.759-10.439 21.202-19.55-9.626 10.439-21.201c1.253-2.547 4.345-3.6 6.895-2.345l10.309 5.076c2.548 1.254 3.6 4.347 2.346 6.894z"/></symbol><symbol id="castle" viewBox="0 0 512 512"><title>castle</title><g> <g> <path d="M504.396,210.617h-27.174c-4.199,0-7.604,3.405-7.604,7.604v21.201h-12.365V218.22c0-4.199-3.405-7.604-7.604-7.604 h-30.014c-4.199,0-7.604,3.405-7.604,7.604v21.201h-12.365V218.22c0-4.199-3.405-7.604-7.604-7.604h-27.174 c-4.199,0-7.604,3.405-7.604,7.604v57.609v24.334h-20.587V184.589h18.595c2.495,0,4.92-1.105,6.373-3.133 c2.248-3.138,1.803-7.297-0.811-9.879l-97.251-96.108V59.888h62.735c2.256,0,4.468-0.891,5.945-2.597 c2.32-2.681,2.468-6.481,0.558-9.286l-12.295-18.061l12.295-18.061c1.91-2.805,1.762-6.605-0.558-9.286 C330.806,0.891,328.594,0,326.338,0H256c-4.199,0-7.604,3.405-7.604,7.604v44.68v23.185l-97.094,95.953 c-1.775,1.754-2.723,4.246-2.332,6.711c0.606,3.812,3.847,6.455,7.521,6.455h18.811v43.589c0,4.199,3.405,7.604,7.604,7.604 c4.199,0,7.604-3.405,7.604-7.604v-43.589H321.49v123.14c0,0.013-0.002,0.026-0.002,0.04v23.501H309.13v-23.501 c0-4.199-3.405-7.604-7.604-7.604h-31.745c-4.199,0-7.604,3.405-7.604,7.604v23.501h-12.359v-23.501 c0-4.199-3.405-7.604-7.604-7.604h-31.734c-4.199,0-7.604,3.405-7.604,7.604v23.501h-12.369v-23.501c0-0.001,0-0.002,0-0.002 l0.002-0.001v-44.101c0-4.199-3.405-7.604-7.604-7.604s-7.604,3.405-7.604,7.604v36.499h-20.587v-24.334v-57.609 c0-4.199-3.405-7.604-7.604-7.604h-27.174c-4.199,0-7.604,3.405-7.604,7.604v21.201H99.969v-21.201 c0-4.199-3.405-7.604-7.604-7.604H62.35c-4.199,0-7.604,3.405-7.604,7.604v21.201H42.381v-21.201c0-4.199-3.405-7.604-7.604-7.604 H7.604c-4.199,0-7.604,3.405-7.604,7.604v57.609c0,4.199,3.405,7.604,7.604,7.604h17.849v220.964c0,4.199,3.405,7.604,7.604,7.604 H147.11c0.007,0,0.013-0.001,0.019-0.001h217.74c0.006,0,0.013,0.001,0.019,0.001h114.054c4.199,0,7.604-3.405,7.604-7.604 V363.019c0-4.199-3.405-7.604-7.604-7.604s-7.604,3.405-7.604,7.604v133.773h-98.843V307.767c0-0.02-0.003-0.039-0.003-0.059 v-24.275h98.846v44.1c0,4.199,3.405,7.604,7.604,7.604s7.604-3.405,7.604-7.604v-44.1h17.849c4.199,0,7.604-3.405,7.604-7.604 V218.22C512,214.021,508.596,210.617,504.396,210.617z M263.604,15.208h48.576l-7.118,10.457 c-1.759,2.582-1.759,5.977-0.001,8.558l7.118,10.457h-48.575V15.208z M139.506,496.792H40.661V283.433h98.845V496.792z M139.507,268.225H33.057H15.208v-42.401h11.966v21.201c0,4.199,3.405,7.604,7.604,7.604H62.35c4.199,0,7.604-3.405,7.604-7.604 v-21.201h14.806v21.201c0,4.199,3.405,7.604,7.604,7.604h27.573c4.199,0,7.604-3.405,7.604-7.604v-21.201h11.966V268.225z M182.906,169.381h-7.903L256,89.336l80.997,80.044h-7.903H182.906z M248.396,496.333h-36.497v-66.912 c0-21.723,15.792-39.815,36.497-43.431V496.333z M300.1,496.334h-36.496V385.991c20.704,3.615,36.496,21.708,36.496,43.431 V496.334z M357.287,496.791H315.31v-67.37c0-32.702-26.605-59.308-59.308-59.308c-32.702,0-59.308,26.606-59.308,59.308v67.37 h-41.973v-181.42h20.579v23.501c0,4.199,3.405,7.604,7.604,7.604h27.577c4.199,0,7.604-3.405,7.604-7.604v-23.501h16.526v23.501 c0,4.199,3.405,7.604,7.604,7.604h27.567c4.2,0,7.604-3.405,7.604-7.604v-23.501h16.537v23.501c0,4.199,3.404,7.604,7.604,7.604 h27.566c4.2,0,7.604-3.405,7.604-7.604v-23.501h20.59V496.791z M496.792,268.225h-17.848h-106.45v-42.401h11.966v21.201 c0,4.199,3.404,7.604,7.604,7.604h27.573c4.2,0,7.604-3.405,7.604-7.604v-21.201h14.806v21.201c0,4.199,3.404,7.604,7.604,7.604 h27.573c4.2,0,7.604-3.405,7.604-7.604v-21.201h11.965V268.225z"/> </g> </g><g> <g> <path d="M87.802,306.243c-15.932,0-28.894,12.962-28.894,28.894v45.622c0,4.199,3.405,7.604,7.604,7.604h42.58 c4.199,0,7.604-3.405,7.604-7.604v-45.622C116.696,319.205,103.734,306.243,87.802,306.243z M101.489,373.155H74.116v-38.018 c0-7.546,6.14-13.686,13.686-13.686c7.546,0,13.686,6.14,13.686,13.686V373.155z"/> </g> </g><g> <g> <path d="M448.212,335.137c0-15.932-12.961-28.894-28.894-28.894c-15.933,0-28.894,12.962-28.894,28.894v45.622 c0,4.199,3.404,7.604,7.604,7.604h42.58c4.2,0,7.604-3.405,7.604-7.604L448.212,335.137L448.212,335.137z M433.004,373.155 h-27.372v-38.018c0-7.546,6.14-13.686,13.686-13.686c7.546,0,13.686,6.14,13.686,13.686V373.155z"/> </g> </g><g> <g> <path d="M256.001,197.259c-15.932,0-28.894,12.962-28.894,28.894v45.622h-0.001c0,4.199,3.405,7.604,7.604,7.604h42.581 c4.2,0,7.604-3.405,7.604-7.604v-45.622C284.895,210.221,271.934,197.259,256.001,197.259z M269.687,264.171h-27.372v-38.018 h-0.001c0-7.546,6.14-13.686,13.686-13.686s13.687,6.14,13.687,13.686V264.171z"/> </g> </g><g> <g> <path d="M80.199,415.735h-21.29c-4.199,0-7.604,3.405-7.604,7.604c0,4.199,3.404,7.604,7.604,7.604h21.29 c4.199,0,7.604-3.405,7.604-7.604C87.803,419.139,84.399,415.735,80.199,415.735z"/> </g> </g><g> <g> <path d="M104.53,440.067H83.241c-4.199,0-7.604,3.405-7.604,7.604c0,4.199,3.405,7.604,7.604,7.604h21.29 c4.199,0,7.604-3.405,7.604-7.604C112.135,443.471,108.73,440.067,104.53,440.067z"/> </g> </g><g> <g> <path d="M414.757,415.735h-21.29c-4.2,0-7.604,3.405-7.604,7.604c0,4.199,3.404,7.604,7.604,7.604h21.29 c4.2,0,7.604-3.405,7.604-7.604C422.36,419.139,418.957,415.735,414.757,415.735z"/> </g> </g><g> <g> <path d="M439.087,440.067h-21.29c-4.2,0-7.604,3.405-7.604,7.604c0,4.199,3.405,7.604,7.604,7.604h21.29 c4.2,0,7.604-3.405,7.604-7.604C446.691,443.471,443.288,440.067,439.087,440.067z"/> </g> </g><g> <g> <path d="M340.241,370.113h-21.29c-4.2,0-7.604,3.405-7.604,7.604s3.405,7.604,7.604,7.604h21.29c4.2,0,7.604-3.405,7.604-7.604 S344.441,370.113,340.241,370.113z"/> </g> </g><g> <g> <path d="M224.179,190.669h-21.29c-4.199,0-7.604,3.405-7.604,7.604s3.405,7.604,7.604,7.604h21.29 c4.199,0,7.604-3.405,7.604-7.604S228.378,190.669,224.179,190.669z"/> </g> </g><g> <g> <path d="M191.211,388.362h-21.29c-4.199,0-7.604,3.405-7.604,7.604c0,4.199,3.405,7.604,7.604,7.604h21.29 c4.199,0,7.604-3.404,7.604-7.604C198.815,391.766,195.411,388.362,191.211,388.362z"/> </g> </g></symbol><symbol id="home" viewBox="0 0 512 512"><title>home</title><path d="m426 495.983h-340c-25.364 0-46-20.635-46-46v-242.02c0-8.836 7.163-16 16-16s16 7.164 16 16v242.02c0 7.72 6.28 14 14 14h340c7.72 0 14-6.28 14-14v-242.02c0-8.836 7.163-16 16-16s16 7.164 16 16v242.02c0 25.364-20.635 46-46 46z"/><path d="m496 263.958c-4.095 0-8.189-1.562-11.313-4.687l-198.989-198.987c-16.375-16.376-43.02-16.376-59.396 0l-198.988 198.988c-6.248 6.249-16.379 6.249-22.627 0-6.249-6.248-6.249-16.379 0-22.627l198.988-198.989c28.852-28.852 75.799-28.852 104.65 0l198.988 198.988c6.249 6.249 6.249 16.379 0 22.627-3.123 3.125-7.218 4.687-11.313 4.687z"/><path d="m320 495.983h-128c-8.837 0-16-7.164-16-16v-142c0-27.57 22.43-50 50-50h60c27.57 0 50 22.43 50 50v142c0 8.836-7.163 16-16 16zm-112-32h96v-126c0-9.925-8.075-18-18-18h-60c-9.925 0-18 8.075-18 18z"/></symbol></svg>