<?xml version="1.0" encoding="iso-8859-1"?>
<!-- Generator: Adobe Illustrator 19.0.0, SVG Export Plug-In . SVG Version: 6.00 Build 0)  -->
<svg version="1.1" id="Capa_1" xmlns="http://www.w3.org/2000/svg" xmlns:xlink="http://www.w3.org/1999/xlink" x="0px" y="0px"
	 viewBox="0 0 511.999 511.999" style="enable-background:new 0 0 511.999 511.999;" xml:space="preserve">
<g>
	<g>
		<g>
			<path d="M203.03,88.708c-4.143,0-7.5,3.357-7.5,7.5v1.298c0,4.143,3.357,7.5,7.5,7.5c4.143,0,7.5-3.357,7.5-7.5v-1.298
				C210.53,92.065,207.172,88.708,203.03,88.708z"/>
			<path d="M431.093,104.855h-29.126c-20.222,0-38.955-10.07-50.109-26.937c-20.478-30.968-54.867-49.455-91.993-49.455h-42.413
				c-19.792,0-39.115,5.001-56.307,14.49c-0.604-0.673-1.226-1.335-1.872-1.982l-24.054-24.054c-6.17-6.169-16.208-6.169-22.38,0
				L88.785,40.969c-19.433,19.434-19.433,51.054,0,70.488c4.294,4.294,9.185,7.635,14.405,10.031
				c-1.6,7.762-2.419,15.689-2.419,23.655v50.198c0,33.034,15.486,63.047,39.901,82.539c-10.249,16.232-15.827,34.552-16.271,53.518
				c-25.006,17.622-62.926,24.986-102.369,19.723c-9.24-1.23-17.606,3.813-20.805,12.56c-3.167,8.663-0.063,17.823,7.725,22.794
				c48.757,31.129,109.241,37.766,156.896,39.932c1.199,0.58,2.424,1.142,3.682,1.682c0.543,14.833,0.604,30.805,0.109,37.261
				c-1.349,17.544,11.827,32.915,29.372,34.265c0.814,0.063,1.646,0.095,2.472,0.095c16.555,0,30.52-12.943,31.792-29.469
				c0.152-1.995,0.531-15.155,0.351-30.788c3.148,0.082,6.372,0.126,9.679,0.126c9.155,0,17.687-0.319,25.642-0.956
				c5.105,15.015,5.507,19.924,5.531,20.29c0.009,8.475,3.303,16.448,9.282,22.462c6.01,6.044,14.015,9.386,22.63,9.41
				c11.404,0,22.016-6.15,27.694-16.051c2.061-3.593,0.818-8.177-2.774-10.237c-3.594-2.061-8.177-0.819-10.237,2.775
				c-3.013,5.252-8.639,8.515-14.731,8.515c-4.519-0.013-8.761-1.784-11.945-4.987c-3.186-3.202-4.932-7.454-4.919-11.972
				c0-0.049,0-0.098-0.001-0.147c-0.033-1.957-0.669-7.682-5.292-21.78c12.608-1.886,23.468-4.782,32.721-8.738
				c1.54,4.809,2.809,9.194,3.778,13.084c0.85,3.41,3.908,5.689,7.272,5.689c0.601,0,1.21-0.073,1.819-0.225
				c4.019-1.001,6.466-5.071,5.464-9.091c-1.224-4.914-2.872-10.507-4.906-16.671c5.1-3.422,9.52-7.327,13.29-11.739
				c4.291-5.021,7.6-10.541,10.151-16.419c3.864,2.72,8.518,4.237,13.446,4.237c4.315,0,8.545-1.199,12.228-3.466
				c5.316-3.27,9.041-8.416,10.488-14.487s0.442-12.345-2.829-17.658c-6.076-9.877-14.43-18.87-24.853-26.785
				c0-0.259,0.001-0.517,0.001-0.776c0-11.323-1.808-22.386-5.383-33.023h74.224c44.611,0,80.906-36.295,80.906-80.906v-34.164
				C511.999,141.149,475.705,104.855,431.093,104.855z M361.777,353.901c5.009,4.809,9.214,9.949,12.553,15.375
				c1.171,1.903,1.531,4.148,1.013,6.322c-0.518,2.174-1.852,4.017-3.758,5.189c-1.319,0.811-2.829,1.241-4.367,1.241
				c-2.938,0-5.607-1.489-7.142-3.984c-0.359-0.584-0.74-1.167-1.132-1.75C360.495,369.06,361.333,361.528,361.777,353.901z
				 M113.93,109.573c-0.021-0.006-0.043-0.008-0.064-0.014c-5.409-1.641-10.365-4.598-14.474-8.707
				c-13.586-13.586-13.586-35.691,0-49.275l24.053-24.054c0.161-0.161,0.373-0.241,0.584-0.241c0.212,0,0.423,0.08,0.584,0.241
				l24.054,24.054c13.586,13.584,13.586,35.689,0,49.274c-6.581,6.581-15.33,10.206-24.638,10.206c-3.436,0-6.795-0.498-9.999-1.452
				C113.996,109.596,113.965,109.582,113.93,109.573z M17.022,373.835c-2.589-1.652-2.058-4.05-1.709-5.003
				c0.365-0.996,1.557-3.26,4.733-2.843c38.96,5.201,76.892-1.116,104.547-16.964c0.839,22.118,4.395,43.81,18.391,60.187
				c0.235,0.275,0.483,0.54,0.723,0.812C102.504,406.741,55.465,398.38,17.022,373.835z M218.316,469.096
				c-0.674,8.757-8.069,15.616-16.836,15.616c-0.444,0-0.889-0.017-1.322-0.05c-9.298-0.716-16.28-8.862-15.566-18.159
				c0.518-6.734,0.465-20.504,0.109-33.222c9.884,2.648,21.153,4.441,33.914,5.416C218.821,454.663,218.417,467.763,218.316,469.096
				z M431.093,285.832H227.618c-4.143,0-7.5,3.357-7.5,7.5c0,4.143,3.357,7.5,7.5,7.5h113.274
				c4.223,10.549,6.361,21.635,6.361,33.023c0,29.646-2.516,50.962-15.035,65.612c-3.762,4.402-8.43,8.196-14.058,11.409
				c-0.325,0.15-0.63,0.325-0.924,0.515c-10.819,5.945-25.098,9.815-43.314,11.74c-0.367,0.008-0.735,0.047-1.104,0.111
				c-8.899,0.895-18.71,1.341-29.514,1.341c-5.77,0-11.26-0.126-16.479-0.379c-0.274-0.03-0.552-0.05-0.834-0.05
				c-0.019,0-0.038,0-0.057,0.001c-18.592-0.96-33.709-3.565-45.728-7.917c-0.5-0.254-1.03-0.453-1.584-0.589
				c-2.429-0.932-4.726-1.939-6.895-3.022c-0.346-0.216-0.712-0.4-1.092-0.558c-6.621-3.454-12.009-7.643-16.248-12.603
				c-12.521-14.649-15.035-35.967-15.035-65.612c0-16.782,4.713-33.057,13.682-47.468c11.714,6.889,24.897,11.594,39.028,13.495
				c0.34,0.046,0.677,0.068,1.011,0.068c3.697,0,6.916-2.735,7.423-6.5c0.553-4.105-2.327-7.881-6.432-8.434
				c-44.633-6.01-78.291-44.561-78.291-89.676v-50.198c0-6.574,0.636-13.116,1.885-19.53c2.116,0.271,4.245,0.419,6.375,0.419
				c12.764,0,25.526-4.858,35.244-14.574v-0.001c15.096-15.096,18.458-37.546,10.1-55.924c14.727-7.915,31.208-12.072,48.079-12.072
				h42.413c32.076,0,61.789,15.973,79.481,42.728c13.94,21.079,37.35,33.664,62.621,33.664h29.126
				c36.342,0,65.907,29.566,65.907,65.908v34.167H497C497,256.267,467.435,285.832,431.093,285.832z"/>
			<path d="M216.841,357.835c-2.577,3.242-2.037,7.961,1.206,10.538c5.603,4.452,17.61,9.652,33.013,9.652
				c10.631,0,20.598-2.508,29.624-7.455c11.299-6.191,15.452-20.421,9.262-31.723c-3.001-5.474-7.953-9.451-13.943-11.2
				c-5.99-1.75-12.306-1.061-17.777,1.94c-6.195,3.392-13.399,0.673-13.467,0.645c-3.829-1.591-8.215,0.226-9.802,4.052
				c-1.588,3.826,0.227,8.215,4.052,9.802c5.066,2.104,16.332,4.188,26.426-1.345c1.959-1.072,4.222-1.319,6.365-0.694
				c2.146,0.627,3.92,2.052,4.994,4.011c2.217,4.047,0.729,9.143-3.316,11.36c-6.792,3.722-14.332,5.609-22.415,5.609
				c-11.47,0-20.445-3.825-23.681-6.396C224.136,354.054,219.42,354.592,216.841,357.835z"/>
			<circle cx="440.509" cy="150.698" r="7.514"/>
			<path d="M423.642,228.006h-14.152c-4.143,0-7.5,3.357-7.5,7.5c0,4.143,3.357,7.5,7.5,7.5h14.153c4.143,0,7.5-3.357,7.5-7.5
				C431.141,231.363,427.785,228.006,423.642,228.006z"/>
			<path d="M282.125,88.708c-4.143,0-7.5,3.357-7.5,7.5v1.298c0,4.143,3.357,7.5,7.5,7.5c4.143,0,7.5-3.357,7.5-7.5v-1.298
				C289.625,92.065,286.267,88.708,282.125,88.708z"/>
			<circle cx="392.622" cy="150.698" r="7.514"/>
		</g>
	</g>
</g>
<g>
</g>
<g>
</g>
<g>
</g>
<g>
</g>
<g>
</g>
<g>
</g>
<g>
</g>
<g>
</g>
<g>
</g>
<g>
</g>
<g>
</g>
<g>
</g>
<g>
</g>
<g>
</g>
<g>
</g>
</svg>
