<svg id="Capa_1" enable-background="new 0 0 512 512" height="512" viewBox="0 0 512 512" width="512" xmlns="http://www.w3.org/2000/svg"><path d="m440.6 275.514h-8.763v-28.149c0-4.142-3.358-7.5-7.5-7.5s-7.5 3.358-7.5 7.5v28.149h-17.615v-106.143c0-1.349-.364-2.673-1.054-3.833l-21.37-35.939v-111.907c0-1.484 1.208-2.692 2.692-2.692h12.231c1.484 0 2.692 1.208 2.692 2.692v102.109c0 1.349.364 2.673 1.053 3.833l21.37 35.94v52.394c0 4.142 3.358 7.5 7.5 7.5s7.5-3.358 7.5-7.5v-54.456c0-1.349-.364-2.673-1.053-3.833l-18.137-30.503h20.863c9.755 0 17.692-7.937 17.692-17.692v-77.244c0-9.755-7.937-17.692-17.692-17.692h-25.616c-2.751-6.204-8.959-10.548-16.171-10.548h-12.231c-9.755 0-17.692 7.937-17.692 17.692v113.968c0 1.349.364 2.673 1.054 3.833l21.37 35.94v104.081h-4.369l-43.515-112.811c-1.355-3.514-4.017-6.143-7.233-7.534l-7.334-26.689c-2.585-9.407-12.34-14.958-21.748-12.372l-29.091 7.994c-4.557 1.252-8.354 4.204-10.69 8.311-2.337 4.108-2.935 8.88-1.682 13.437l7.334 26.69c-2.053 2.839-2.998 6.458-2.368 10.171l15.758 92.803h-3.119c-7.508 0-13.616 6.108-13.616 13.615v87.248c-.706-.005-1.408-.021-2.115-.021-6.549 0-13.011.239-19.351.68v-138.269c0-15.164-12.336-27.5-27.5-27.5h-14.627v-13.6c0-9.649-7.851-17.5-17.5-17.5h-11.261v-32.667h9.423c9.649 0 17.5-7.851 17.5-17.5v-13.32c0-9.649-7.851-17.5-17.5-17.5h-60.37c-9.365 0-17.014 7.401-17.457 16.659h-23.34c-1.989 0-3.897.79-5.303 2.197l-13.167 13.167c-2.929 2.929-2.929 7.678 0 10.606 1.464 1.464 3.384 2.197 5.303 2.197s3.839-.732 5.303-2.197l10.97-10.97h20.233c.442 9.259 8.091 16.661 17.458 16.661h9.424v32.667h-11.262c-9.649 0-17.5 7.851-17.5 17.5v13.6h-14.627c-15.164 0-27.5 12.336-27.5 27.5v148.536c0 4.142 3.358 7.5 7.5 7.5s7.5-3.358 7.5-7.5v-20.803h89.124c9.649 0 17.5-7.851 17.5-17.5v-66c0-9.649-7.851-17.5-17.5-17.5h-89.124v-26.733c0-6.893 5.607-12.5 12.5-12.5h128.299c6.893 0 12.5 5.607 12.5 12.5v139.741c-17.553 2.255-33.685 6.237-47.144 11.75-24.012 9.834-37.236 23.738-37.236 39.152 0 9.495 4.98 18.38 14.388 26.104h-22.876c-7.507 0-13.615 6.108-13.615 13.615v10.225c0 6.498 1.916 12.554 5.202 17.646h-39.518c-6.893 0-12.5-5.607-12.5-12.5v-61.802c0-4.142-3.358-7.5-7.5-7.5s-7.5 3.358-7.5 7.5v61.802c0 15.164 12.336 27.5 27.5 27.5h336.285c18.001 0 32.646-14.645 32.646-32.646v-190.225c.001-7.507-6.107-13.615-13.615-13.615zm-4.397-247.274v77.245c0 1.484-1.208 2.692-2.692 2.692h-24.096v-82.63h24.096c1.484.001 2.692 1.209 2.692 2.693zm-274.295 252.26c1.378 0 2.5 1.122 2.5 2.5v66c0 1.378-1.122 2.5-2.5 2.5h-89.124v-71zm-45.16-150.5v-13.32c0-1.378 1.122-2.5 2.5-2.5h60.37c1.378 0 2.5 1.122 2.5 2.5v13.32c0 1.378-1.122 2.5-2.5 2.5h-60.37c-1.378 0-2.5-1.122-2.5-2.5zm26.924 17.5h11.522v32.667h-11.522zm-28.761 50.167c0-1.378 1.122-2.5 2.5-2.5h64.045c1.378 0 2.5 1.122 2.5 2.5v13.6h-69.045zm158.369-57.836c.206-.362.691-1.007 1.627-1.265l29.091-7.994c.937-.257 1.682.049 2.045.256.362.206 1.007.691 1.265 1.627l6.546 23.823-34.284 9.42-6.546-23.823c-.257-.935.05-1.682.256-2.044zm5.261 41.707 44.291-12.17 40.944 106.146h-69.278zm-126.294 315.462c-9.73 0-17.646-7.916-17.646-17.646v-8.84h136.703c4.142 0 7.5-3.358 7.5-7.5s-3.358-7.5-7.5-7.5h-84.6c-.027-.011-.052-.025-.079-.035-18.736-7.276-29.922-17.022-29.922-26.069 0-8.664 10.438-18.111 27.921-25.271 20.127-8.243 47.051-12.783 75.81-12.783s55.682 4.54 75.809 12.783c17.483 7.16 27.921 16.607 27.921 25.271 0 9.037-11.165 18.774-29.866 26.047-.044.017-.084.039-.127.057h-27.472c-4.142 0-7.5 3.358-7.5 7.5s3.358 7.5 7.5 7.5h79.568v8.84c0 9.73-7.916 17.646-17.646 17.646zm286.969-17.646c0 9.73-7.916 17.646-17.646 17.646h-25.505c3.286-5.093 5.202-11.148 5.202-17.646v-10.225c0-7.507-6.108-13.615-13.615-13.615h-22.877c9.409-7.725 14.39-16.611 14.39-26.104 0-15.414-13.224-29.318-37.236-39.152-17.765-7.275-40.175-11.897-64.379-13.381v-86.362h161.667v188.839z"/></svg>